<svg xmlns="http://www.w3.org/2000/svg" viewBox="0 0 32 32">
  <g id="social-logos">
    <path id="linux" d="M26.62408,24.4223a3.86664,3.86664,0,0,1-1.15026-.93329,1.45977,1.45977,0,0,1-.34723-1.04174c0-.32557-.152-.52088-.28217-.06513a2.23681,2.23681,0,0,0,.39063,1.7146c.34729.39063.78137.28211,1.23712.52087s.56427.54261.13025.97663a5.55962,5.55962,0,0,1-2.04016.88983A8.461,8.461,0,0,0,22.457,27.89484a1.56582,1.56582,0,0,1-1.93158-.04346c-.586-.54254-.47748-1.02-.34729-1.90985a4.4301,4.4301,0,0,0-.04339-1.93164,4.82158,4.82158,0,0,1-.15192-1.606c.02173-.88983.39069-1.02008.73791-.99835a.45324.45324,0,0,0,.09143-.00586,2.17968,2.17968,0,0,0,.34266.78717c1.04174,1.51922,2.43078.17364,3.21209-.65112s.60767-1.58429.30384-3.19037a9.30739,9.30739,0,0,0-1.99671-4.23212,18.0063,18.0063,0,0,1-2.0401-3.29895c-.60772-1.12854-.43408-3.29889-.73791-4.94836S18.09467,2.95764,15.70734,3.0011s-3.53766,1.34656-3.45087,4.29724c.0434,1.47583.08679,2.12689.13025,3.25549s.19531.99836-.32556,1.7146-.19538.30384-.93329,1.36731A8.53852,8.53852,0,0,0,9.56525,16.175a16.82111,16.82111,0,0,1-1.2154,2.77807,2.31535,2.31535,0,0,0-.34723,1.56263c.02167.49914.0868.54254.45575.34723s.803-.13019,1.541.75964a31.36481,31.36481,0,0,1,1.90991,2.71289,4.02628,4.02628,0,0,1,1.04175,2.5827c-.13025.88983-.56427,1.62775-2.14862,1.21539s-1.64948-.41235-2.561-.62939-1.88818-.47748-2.43078-.60767-.58594-.32556-.28211-.71624a1.46577,1.46577,0,0,0,.39063-.955,3.05557,3.05557,0,0,0-.41236-1.389c-.217-.47747-.04339-.75964.369-.75964a4.26221,4.26221,0,0,0,1.23712.0434c.67279-.10846.71619-.82471.803-1.08515s0-1.04175-.30389-.04339-1.02.84643-1.77966.84643-.86811.82471-.586,1.62775a2.457,2.457,0,0,1-.17359,1.80139c-.13025.39062-.19537.8681.803,1.08514s.10852.06513,1.758.39069a19.32343,19.32343,0,0,1,3.34228,1.10687c1.10687.369,1.32392,0,1.90991-.47748a3.08512,3.08512,0,0,1,2.32227-.71624c1.30218-.02167,2.97333,0,3.47253.02173s.60773-.0434.82471.39062c.31738.6347.803.88983,1.86652.88983s1.36731-.47742,1.90991-1.02a6.79,6.79,0,0,1,1.975-1.28052,7.3646,7.3646,0,0,0,1.56263-.93322C27.47052,25.26874,27.145,24.7478,26.62408,24.4223ZM19.24225,10.71936a1.312,1.312,0,0,0,.59686.41235c.3147.11933.3147.23871.18445.53168s-.27307.12152-.51-.07593a.90875.90875,0,0,1-.34729-.47747C19.051,10.83521,19.1012,10.55658,19.24225,10.71936ZM17.29919,5.08563c.03827-.05108.10212-.06384.10212-.11487a2.80141,2.80141,0,0,1,.0766-.47235c.06378-.17871.2741-.13549.4085-.02551a1.46708,1.46708,0,0,1,.38294.35742.09851.09851,0,0,1-.01276.14044c-.14044.08936-.31915-.01275-.44678.06379-.16595.08941-.39575.34472-.52343.217A.1356.1356,0,0,1,17.29919,5.08563ZM10.43341,15.67584c.07013-.14447.04987-.30816.1496-.41089.03326-.03424.19958-.06848.21618.03424a.5631.5631,0,0,1-.17871.51789c-.16632.11981-.32428.44085-.43652.30389S10.35022,15.84705,10.43341,15.67584Zm9.26569,6.69879c.06811,1.25953-.02008,1.67871-.02008,2.54682a20.14968,20.14968,0,0,1-.28217,2.36566c-.67279.13025-.24585-1.241-.0722-1.84876s.0354-1.48431-.68085-.4425-2.00324,1.16272-3.197,1.18439a1.82826,1.82826,0,0,1-1.606-.56427c-.30383-.19532-.51434.00451-.16711.26495a1.05167,1.05167,0,0,1-.09333,1.645c.34723-.71625-.08679-1.28052-.88983-2.36566,1.28046-.56433.97663-1.34564.10852-1.975a30.14962,30.14962,0,0,1-2.6261-2.23541,2.2861,2.2861,0,0,1-.803-1.45416,2.6793,2.6793,0,0,1,.21705-1.541c.123-.21185.18042-.09058.12084.07965a3.6041,3.6041,0,0,0-.14257.96216,1.57633,1.57633,0,0,0,.4992,1.32391c.39063.369.54254.26044.49915-.28216a9.17782,9.17782,0,0,1,.15192-1.93158,10.05986,10.05986,0,0,1,.955-2.344c.32556-.47747.43408-.52087.39069-.93322a2.47,2.47,0,0,1,.26043-1.47583,6.13982,6.13982,0,0,0,.65107-1.47583c.04345-.28217.06512-.34723.30389-.0868s.217.39063.41235.60767.47748.69452.93323.67279a1.0446,1.0446,0,0,0,.91156-.39062,8.7262,8.7262,0,0,1,1.23706-.86817c.30383-.19531.39069-.13019.71625-.34723s.06506-.4992-.26044-.28216a13.42688,13.42688,0,0,1-1.77972.8247,1.5442,1.5442,0,0,1-1.02.06513c-.26044-.08679-.23877-.15192-.5426-.369s-.17365-.26044.10852-.23871-.34723,0,.56427.0434a3.79517,3.79517,0,0,0,1.84478-.5426,7.52539,7.52539,0,0,0,1.28052-.49915c.26044-.17364-.02173-.45581-.19531-.26044s0,.17359-.49921.34723a9.52088,9.52088,0,0,1-1.975.60773c-.91156.15192-1.28052,0-1.49756-.32556a.85319.85319,0,0,0-.49915-.43408c-.26043-.13025-.13025-.6294.19532-.84644s.43408-.39069.71618-.586.30384-.217.34729-.49914a1.21193,1.21193,0,0,0-.34729-.84644.51543.51543,0,0,0-.67279.08679c-.23871.217-.08679.93323.13025,1.10688s.3255-.02167.10852.36895-.586-.13018-.60773-1.21539.75965-1.389,1.2154-1.12854.49914.93323.52087,1.25879-.08679.52087.217.49914a2.09788,2.09788,0,0,1,.52088.02173c.30383.02167.47747.28211.39068-.17364A2.01261,2.01261,0,0,1,16.098,6.97278c.30383-.39063.586-.43408,1.21539-.30383s.71619.52087.88984,1.08514a1.744,1.744,0,0,1-.0434,1.36731c-.17364.19537-.52087.02173-.586-.08679s.17365-.369.15192-.86817a.77352.77352,0,0,0-1.06348-.56427,1.005,1.005,0,0,0-.3255,1.2154c.17358.34722.8681.56427,1.389.71618s.71625.34729.45575,1.06348-.0434,1.1286.45581,1.758a6.23788,6.23788,0,0,1,.84643,2.14863c.10852.41235.60767,1.08514,1.02,2.06182a7.40788,7.40788,0,0,1,.33283,2.901c0,.76685.30383.60767.63659.60767s.60773-.23144.76685-.81024a4.593,4.593,0,0,0-.192-2.43829,12.3042,12.3042,0,0,0-1.48632-2.61133c-.12531-.1543.05975-.07849.12469-.044a5.92274,5.92274,0,0,1,1.668,2.44251,4.41833,4.41833,0,0,1,.07373,2.897c-.17364.60773-.07233.26044.43408.63666s.40515.47748-.01446.26044a1.86738,1.86738,0,0,0-1.389-.13025.80141.80141,0,0,0-.67621.8103A.80921.80921,0,0,0,20.6991,21.08C20.15649,21.08,19.63354,21.161,19.6991,22.37463Zm-5.957-14.57574c.012-.00092.03405-.02655.04687-.01556a.54541.54541,0,0,1,.18189.26232c.03735.17725.14044.34949.05578.49994-.01013.02478-.11578.05677-.12115-.01483-.03833-.18915-.05634-.42785-.24439-.53369C13.65472,7.91351,13.606,7.8092,13.74207,7.79889Zm3.75451.64642c-.02575.04859-.14892.05152-.152.00354-.01983-.30371-.2232-.56836-.36877-.57605-.16168-.00848-.07111-.14789-.04443-.16125a.43746.43746,0,0,1,.26684.04.52519.52519,0,0,1,.288.29254C17.5188,8.1897,17.56757,8.3255,17.49658,8.44531Zm-1.62652.60016c-.03254.07593-.14106.0434-.19532.02167-.09765-.0434-.217-.0434-.28216-.141-.03253-.05426.04346-.0434.076-.0434C15.62085,8.88269,15.946,8.8067,15.87006,9.04547Zm-1.24463-.14929c.01086,0,.03259.0434-.02167.06512-.04511.018-.10852,0-.152.02167-.03253.01087-.04339.05426-.05426.08685-.02167.07593-.08679.17359-.18445.13019a.13775.13775,0,0,1-.05426-.19531A.4796.4796,0,0,1,14.62543,8.89618Z" fill="#262626"/>
  </g>
</svg>
